# xmcd CD database file
#
# Track frame offsets:
#	150
#	13186
#	25570
#	38601
#	49816
#	61410
#	73714
#	82870
#	92346
#	102572
#	114513
#	124157
#	134393
#	143716
#	160793
#	169737
#	180569
#	191586
#	204034
#	220005
#	231171
#	244259
#	257997
#	270066
#	281587
#	295225
#
# Disc length: 4067 seconds
#
# Revision: 0
# Processed by: cddbd v1.5.2PL0 Copyright (c) Steve Scherf et al.
# Submitted via: CDex 1.70beta2
#
DISCID=660fe11a
DTITLE=Nat King Cole Trio - Radio Sessions from The Early Years- 1938 - 1939 - Disc 2
DYEAR=1900
DGENRE=Jazz
TTITLE0=You're My Life
TTITLE1=Trompin'
TTITLE2=Black Spider Stomp
TTITLE3=Scategoria
TTITLE4=Rhythm Serenade
TTITLE5=Rib Town Shuffle
TTITLE6=Music'll Chase Your Blues Away
TTITLE7=King Cole Blues
TTITLE8=Honey Hush
TTITLE9=Vine Street Jump
TTITLE10=You Send Me
TTITLE11=Pogo Stick
TTITLE12=Jam Man
TTITLE13=Fudge Wudge
TTITLE14=Smokey Joe
TTITLE15=Windy City Boogie Woogie
TTITLE16=Gone With The Draft
TTITLE17=This Side Up
TTITLE18=This Will Make You Laugh
TTITLE19=Do Nothin' Till You Hear From Me
TTITLE20=The Old Music Master
TTITLE21=After You've Gone
TTITLE22=Is You Is Or Is You Ain't My Baby
TTITLE23=I Can't Give You Anything But Love
TTITLE24=Shoo Shoo Baby
TTITLE25=Miss Thing
EXTD=
EXTT0=
EXTT1=
EXTT2=
EXTT3=
EXTT4=
EXTT5=
EXTT6=
EXTT7=
EXTT8=
EXTT9=
EXTT10=
EXTT11=
EXTT12=
EXTT13=
EXTT14=
EXTT15=
EXTT16=
EXTT17=
EXTT18=
EXTT19=
EXTT20=
EXTT21=
EXTT22=
EXTT23=
EXTT24=
EXTT25=
PLAYORDER=
